<svg width="14" height="15" viewBox="0 0 14 15" fill="none" xmlns="http://www.w3.org/2000/svg">
<path d="M1.93482 4.31638C1.99994 4.1789 2.10276 4.06273 2.23131 3.9814C2.35986 3.90006 2.50887 3.8569 2.66099 3.85693H11.3396C11.6509 3.85693 11.9322 4.03573 12.0648 4.31638C12.1994 4.59702 12.1572 4.9291 11.9442 5.16937L8.28599 9.66073V12.2141C8.28599 12.4572 8.14938 12.6801 7.93041 12.7886C7.71344 12.8971 7.45228 12.875 7.25742 12.7284L5.9717 11.7641C5.80898 11.6435 5.71456 11.4527 5.71456 11.2498V9.66073L2.03907 5.16937C1.94274 5.05163 1.8818 4.90897 1.86335 4.75797C1.8449 4.60697 1.86969 4.45384 1.93484 4.31638H1.93482Z" fill="#D4D4F4"/>
</svg>
