<svg width="14" height="14" viewBox="0 0 14 14" fill="none" xmlns="http://www.w3.org/2000/svg">
<path d="M13.0026 9.94611L10.8706 12.0006L10.8705 12.0006C10.6068 12.2551 10.1887 12.2551 9.92502 12.0006L13.0026 9.94611ZM13.0026 9.94611C13.0696 9.88501 13.1238 9.81115 13.1619 9.72884C13.2003 9.64605 13.2216 9.55641 13.2247 9.46522C13.2278 9.37404 13.2125 9.28316 13.1799 9.19797C13.1472 9.11279 13.0977 9.03503 13.0344 8.96931C12.9711 8.90359 12.8953 8.85124 12.8114 8.81536C12.7275 8.77948 12.6373 8.76081 12.546 8.76045C12.4548 8.76009 12.3644 8.77805 12.2803 8.81326C12.1966 8.84827 12.1207 8.89964 12.0571 8.96434L11.0795 9.90626V3.3652C11.0795 3.18439 11.0077 3.01098 10.8798 2.88313C10.752 2.75527 10.5786 2.68345 10.3978 2.68345C10.2169 2.68345 10.0435 2.75527 9.91568 2.88313C9.78783 3.01098 9.716 3.18439 9.716 3.3652V9.90626L8.73841 8.96434C8.67483 8.89964 8.59896 8.84827 8.51526 8.81326C8.43109 8.77805 8.34071 8.76009 8.24947 8.76045C8.15823 8.76081 8.06799 8.77948 7.9841 8.81536C7.90021 8.85124 7.82437 8.90359 7.76108 8.96931C7.6978 9.03503 7.64834 9.11279 7.61566 9.19797C7.58297 9.28316 7.56772 9.37404 7.5708 9.46522C7.57388 9.55641 7.59523 9.64605 7.63359 9.72884C7.67174 9.81115 7.72592 9.88502 7.79297 9.94611L9.92495 12.0006L13.0026 9.94611Z" fill="#D4D4F4" stroke="#D4D4F4" stroke-width="0.2"/>
<path d="M4.08743 2.88336L4.08739 2.88332C3.95956 2.75565 3.78628 2.68394 3.60562 2.68394C3.42495 2.68394 3.25167 2.75565 3.12384 2.88332L3.1238 2.88336L0.990699 5.01646L0.990655 5.01642L0.988249 5.019C0.867824 5.14824 0.802263 5.31917 0.80538 5.49579C0.808496 5.67241 0.880045 5.84093 1.00495 5.96584C1.12986 6.09075 1.29838 6.1623 1.475 6.16542C1.65162 6.16853 1.82256 6.10297 1.9518 5.98255L1.95184 5.98259L1.95433 5.9801L2.92386 5.01057V11.5097C2.92386 11.6906 2.99569 11.864 3.12354 11.9918C3.2514 12.1197 3.4248 12.1915 3.60562 12.1915C3.78643 12.1915 3.95984 12.1197 4.08769 11.9918C4.21554 11.864 4.28737 11.6906 4.28737 11.5097V5.01057L5.2569 5.9801L5.25686 5.98014L5.25944 5.98255C5.38868 6.10297 5.55961 6.16853 5.73623 6.16542C5.91285 6.1623 6.08137 6.09075 6.20628 5.96584C6.33119 5.84093 6.40274 5.67241 6.40585 5.49579C6.40897 5.31917 6.34341 5.14824 6.22298 5.019L6.22303 5.01896L6.22053 5.01646L4.08743 2.88336Z" fill="#936DFF" stroke="#936DFF" stroke-width="0.2"/>
</svg>
