<svg width="14" height="14" viewBox="0 0 14 14" fill="none" xmlns="http://www.w3.org/2000/svg">
<g clip-path="url(#clip0_387_5940)">
<path d="M13.351 12.3156L10.8719 9.84375C11.6718 8.82471 12.1058 7.56631 12.1042 6.27084C12.1042 5.11711 11.762 3.9893 11.1211 3.03001C10.4801 2.07072 9.56906 1.32305 8.50316 0.881539C7.43725 0.440027 6.26436 0.324508 5.13281 0.549588C4.00125 0.774669 2.96185 1.33024 2.14605 2.14605C1.33024 2.96185 0.774669 4.00125 0.549588 5.13281C0.324508 6.26436 0.440027 7.43725 0.881539 8.50316C1.32305 9.56906 2.07072 10.4801 3.03001 11.1211C3.9893 11.762 5.11711 12.1042 6.27084 12.1042C7.56631 12.1058 8.82471 11.6718 9.84375 10.8719L12.3156 13.351C12.3834 13.4194 12.4641 13.4736 12.5529 13.5107C12.6418 13.5477 12.7371 13.5667 12.8333 13.5667C12.9296 13.5667 13.0249 13.5477 13.1138 13.5107C13.2026 13.4736 13.2833 13.4194 13.351 13.351C13.4194 13.2833 13.4736 13.2026 13.5107 13.1138C13.5477 13.0249 13.5667 12.9296 13.5667 12.8333C13.5667 12.7371 13.5477 12.6418 13.5107 12.5529C13.4736 12.4641 13.4194 12.3834 13.351 12.3156ZM1.89584 6.27084C1.89584 5.40554 2.15243 4.55968 2.63316 3.84022C3.11389 3.12075 3.79717 2.56 4.5966 2.22886C5.39602 1.89773 6.27569 1.81109 7.12436 1.9799C7.97302 2.14871 8.75257 2.56539 9.36443 3.17724C9.97628 3.7891 10.393 4.56865 10.5618 5.41732C10.7306 6.26598 10.6439 7.14565 10.3128 7.94508C9.98168 8.7445 9.42092 9.42778 8.70146 9.90851C7.98199 10.3892 7.13613 10.6458 6.27084 10.6458C5.11051 10.6458 3.99772 10.1849 3.17724 9.36443C2.35677 8.54396 1.89584 7.43116 1.89584 6.27084Z" fill="#D4D4F4"/>
</g>
<defs>
<clipPath id="clip0_387_5940">
<rect width="14" height="14" fill="white"/>
</clipPath>
</defs>
</svg>
