<svg width="14" height="14" viewBox="0 0 14 14" fill="none" xmlns="http://www.w3.org/2000/svg">
<g clip-path="url(#clip0_92_7029)">
<path d="M13.2222 0.777832H5.44444C5.23816 0.777832 5.04033 0.859776 4.89447 1.00564C4.74861 1.1515 4.66667 1.34933 4.66667 1.55561V3.88894H0.777778C0.571498 3.88894 0.373667 3.97089 0.227806 4.11675C0.0819442 4.26261 0 4.46044 0 4.66672L0 12.4445C0 12.6508 0.0819442 12.8486 0.227806 12.9945C0.373667 13.1403 0.571498 13.2223 0.777778 13.2223H8.55556C8.76184 13.2223 8.95967 13.1403 9.10553 12.9945C9.25139 12.8486 9.33333 12.6508 9.33333 12.4445V10.1112H13.2222C13.4285 10.1112 13.6263 10.0292 13.7722 9.88336C13.9181 9.7375 14 9.53967 14 9.33339V1.55561C14 1.34933 13.9181 1.1515 13.7722 1.00564C13.6263 0.859776 13.4285 0.777832 13.2222 0.777832V0.777832ZM7.77778 6.22228V11.2778C7.77778 11.381 7.73681 11.4799 7.66388 11.5528C7.59094 11.6257 7.49203 11.6667 7.38889 11.6667H1.94444C1.8413 11.6667 1.74239 11.6257 1.66946 11.5528C1.59653 11.4799 1.55556 11.381 1.55556 11.2778V5.83339C1.55556 5.73025 1.59653 5.63133 1.66946 5.5584C1.74239 5.48547 1.8413 5.4445 1.94444 5.4445H7.38889C7.49203 5.4445 7.59094 5.48547 7.66388 5.5584C7.73681 5.63133 7.77778 5.73025 7.77778 5.83339V6.22228ZM12.4444 3.11117V8.16672C12.4444 8.26986 12.4035 8.36878 12.3305 8.44171C12.2576 8.51464 12.1587 8.55561 12.0556 8.55561H9.33333V4.66672C9.33333 4.46044 9.25139 4.26261 9.10553 4.11675C8.95967 3.97089 8.76184 3.88894 8.55556 3.88894H6.22222V2.72228C6.22222 2.61914 6.26319 2.52022 6.33612 2.44729C6.40906 2.37436 6.50797 2.33339 6.61111 2.33339H12.0556C12.1587 2.33339 12.2576 2.37436 12.3305 2.44729C12.4035 2.52022 12.4444 2.61914 12.4444 2.72228V3.11117Z" fill="#936DFF"/>
</g>
<defs>
<clipPath id="clip0_92_7029">
<rect width="14" height="14" fill="white"/>
</clipPath>
</defs>
</svg>
